<svg version="1.1" id="Layer_1" xmlns="http://www.w3.org/2000/svg" xmlns:xlink="http://www.w3.org/1999/xlink" x="0px" y="0px"
	 width="100%" viewBox="0 0 1024 336" enable-background="new 0 0 1024 336" xml:space="preserve">
<path fill="#000000" opacity="1.000000" stroke="none" 
	d="
M43.002487,27.065252 
	C103.328369,27.007273 163.155746,26.728933 222.980530,27.008123 
	C244.503418,27.108566 265.049683,32.074497 282.825958,44.966774 
	C305.414948,61.349483 315.707611,83.946442 313.684021,111.580872 
	C311.433655,142.312164 295.083282,163.193878 266.664368,174.714676 
	C253.677124,179.979599 240.002029,181.918777 226.105743,182.094772 
	C208.277298,182.320572 190.444000,182.162704 172.612793,182.169891 
	C170.635727,182.170685 168.658661,182.169983 166.698471,182.169983 
	C166.277618,184.246964 167.738663,184.858200 168.586380,185.715027 
	C202.685577,220.179092 236.827621,254.600830 270.893066,289.098175 
	C272.705933,290.934052 274.514038,291.662109 277.029144,291.626740 
	C379.007019,290.193298 480.995056,291.737305 582.970886,290.613434 
	C604.232117,290.379120 624.138733,284.423004 639.821960,268.682892 
	C661.926392,246.498230 659.939087,209.832031 635.467163,189.321259 
	C619.693970,176.101212 601.020264,170.356781 580.866699,168.217056 
	C567.388794,166.786072 553.905273,167.374771 540.430725,167.330261 
	C484.770935,167.146378 429.110413,167.193634 373.450165,167.157349 
	C366.119202,167.152557 366.152557,167.156342 366.130768,174.614426 
	C366.064575,197.278030 366.023956,219.941940 365.857025,242.604889 
	C365.800232,250.313904 365.642090,250.312744 358.167419,250.245880 
	C348.697174,250.161179 348.678680,250.161163 348.678406,240.697037 
	C348.676392,171.704926 348.680725,102.712799 348.688568,33.720680 
	C348.689301,27.086239 348.724335,27.033062 355.360260,27.030487 
	C424.685516,27.003576 494.011292,26.838854 563.335754,27.060919 
	C584.594543,27.129015 604.719116,32.143322 621.922363,45.388855 
	C642.257751,61.045998 651.262329,81.764687 648.630249,107.463081 
	C646.368652,129.544296 635.607910,145.850983 616.051025,156.358856 
	C615.638672,156.580444 615.333252,157.001068 614.367981,157.891479 
	C617.236206,159.061005 619.738831,160.069550 622.232300,161.100006 
	C643.162292,169.749603 659.299683,183.485565 667.338074,205.153000 
	C681.338440,242.890701 663.790344,282.865601 626.751587,298.688934 
	C611.510132,305.200195 595.592163,308.231384 579.122986,308.240479 
	C476.134857,308.297363 373.146667,308.250702 270.158508,308.269501 
	C267.424561,308.269989 265.162964,307.987030 262.991089,305.786255 
	C220.740097,262.972717 178.387817,220.259140 136.078629,177.502975 
	C132.405029,173.790573 128.887009,169.924194 125.221230,166.049545 
	C127.479004,164.129700 129.556580,164.769470 131.447784,164.766647 
	C161.944214,164.721130 192.440720,164.737946 222.937210,164.733795 
	C237.727692,164.731766 252.347458,163.315628 265.709076,156.469391 
	C285.375763,146.392548 296.581635,130.554398 296.751190,107.904526 
	C296.924133,84.803398 287.412140,67.000778 267.129883,55.536671 
	C254.252823,48.258213 240.172775,45.251957 225.426147,45.030716 
	C166.774521,44.150784 108.119217,44.310493 49.464294,44.331070 
	C42.054268,44.333672 42.027187,44.345226 42.025394,51.703259 
	C42.005379,133.860382 41.993164,216.017502 41.982269,298.174622 
	C41.980721,309.840027 41.925186,308.099426 31.970999,308.240662 
	C24.744753,308.343201 24.745237,308.275360 24.745232,301.227661 
	C24.745150,211.904602 24.783960,122.581490 24.639927,33.258659 
	C24.631861,28.256983 26.427797,26.768421 31.009180,27.029970 
	C34.828659,27.248022 38.670837,27.068542 43.002487,27.065252 
M578.650696,45.886490 
	C576.503906,45.667358 574.361572,45.379761 572.209656,45.239674 
	C550.583679,43.831913 528.927673,44.394875 507.283936,44.362717 
	C462.481934,44.296143 417.679657,44.373264 372.877594,44.430439 
	C366.060089,44.439137 366.069550,44.536064 366.072937,51.287502 
	C366.088440,82.099319 366.181458,112.911568 366.021820,143.722488 
	C365.997437,148.428055 367.391052,149.992874 372.204681,150.177551 
	C387.360687,150.759064 402.496033,150.257462 417.643280,150.181107 
	C466.274933,149.935883 514.907959,149.917908 563.540405,149.927948 
	C573.413452,149.929993 583.097107,148.907181 592.766235,146.891815 
	C627.672119,139.616318 643.288147,102.178711 623.660889,72.386902 
	C613.207031,56.519154 597.451172,49.429775 578.650696,45.886490 
z"/>
<path fill="#000000" opacity="1.000000" stroke="none" 
	d="
M764.000000,308.261353 
	C733.102478,308.261169 702.704956,308.261169 671.158508,308.261169 
	C673.903198,301.618317 677.127808,296.833893 680.235535,292.066986 
	C681.479065,290.159668 684.285767,291.037109 686.401245,291.035004 
	C730.394348,290.991058 774.387451,291.007935 818.380554,290.963165 
	C853.208313,290.927734 888.038025,291.017548 922.862976,290.666168 
	C938.469177,290.508698 953.445374,287.140411 967.875000,280.701508 
	C1003.023560,265.017242 1005.168640,223.211517 985.670410,199.335403 
	C973.088074,183.928070 955.859375,176.238861 937.167725,171.354935 
	C925.359070,168.269440 913.271729,167.085022 901.067627,167.087448 
	C860.240906,167.095535 819.411499,167.369049 778.588806,166.963440 
	C760.659119,166.785294 743.207764,163.276093 726.914673,155.185272 
	C679.051636,131.417450 675.189514,73.637039 719.427185,43.555225 
	C733.160400,34.216560 748.545410,29.527534 764.773438,27.923563 
	C789.689941,25.460827 814.715393,27.213217 839.691589,27.128227 
	C889.183289,26.959812 938.675903,27.063826 988.168152,27.056385 
	C996.069153,27.055199 996.075378,27.057989 996.051086,34.654045 
	C996.013611,46.371044 995.943665,44.273968 986.293823,44.289200 
	C927.303223,44.382301 868.310303,44.119503 809.322998,44.584953 
	C793.210022,44.712097 776.977234,43.685272 760.940186,46.297569 
	C746.734375,48.611561 733.570740,53.461311 722.616699,63.195110 
	C697.090027,85.878159 701.132324,121.166916 730.942017,137.818344 
	C745.306885,145.842468 760.886780,149.347626 776.951538,149.533112 
	C818.606201,150.014069 860.271057,149.525345 901.929871,149.762756 
	C926.566772,149.903168 950.305298,154.506042 972.194031,166.450119 
	C991.665283,177.075027 1006.367432,191.889114 1012.323120,213.884537 
	C1022.112366,250.037613 1006.700745,283.778503 969.747253,298.959473 
	C954.194885,305.348602 937.779663,308.197357 920.974365,308.225861 
	C868.816406,308.314362 816.658142,308.260254 764.000000,308.261353 
z"/>
</svg>